<svg xmlns="http://www.w3.org/2000/svg" xmlns:xlink="http://www.w3.org/1999/xlink" width="1080" zoomAndPan="magnify" viewBox="0 0 810 809.999993" height="1080" preserveAspectRatio="xMidYMid meet" version="1.0"><defs><g/></defs><rect x="-81" width="972" fill="#ffffff" y="-80.999999" height="971.999992" fill-opacity="1"/><rect x="-81" width="972" fill="#ffffff" y="-80.999999" height="971.999992" fill-opacity="1"/><path stroke-linecap="round" transform="matrix(0.801203, 0, 0, 0.801203, 276.45371, 402.99096)" fill-opacity="1" fill="#000000" fill-rule="nonzero" stroke-linejoin="round" d="M -31.925374 -401.216365 C -31.925374 -401.216365 161.426422 -311.82931 161.426422 -311.82931 C 170.577698 -307.597393 177.154721 -300.05015 180.382289 -291.284036 C 183.595231 -282.508172 183.48797 -272.513437 179.256053 -263.362161 C 179.256053 -263.362161 89.859247 -69.990862 89.859247 -69.990862 C 81.400289 -51.693185 59.704402 -43.702273 41.387222 -52.170982 C 23.089545 -60.62994 15.108384 -82.340454 23.567342 -100.638131 C 23.567342 -100.638131 68.680161 -198.23062 68.680161 -198.23062 C -64.737357 -135.814721 -130.85862 17.9433 -80.792313 159.483367 C -55.0254 232.327918 -3.155165 288.259428 60.49423 320.642368 C 69.421234 325.191191 76.480929 332.260637 81.034628 340.690343 C 85.578575 349.105421 87.631153 358.895386 86.539045 368.851117 C 83.521123 396.421957 54.141479 412.593925 29.154642 400.570991 C -55.415438 359.855855 -124.87153 287.498853 -159.828724 192.441614 C -229.197057 3.799532 -134.846763 -207.47453 49.407387 -283.151735 C 49.407387 -283.151735 -62.577519 -334.919585 -62.577519 -334.919585 C -80.884947 -343.383418 -88.870984 -365.084181 -80.402275 -383.40136 C -71.943316 -401.699038 -50.232803 -409.680199 -31.925374 -401.216365 Z M -31.925374 -401.216365 " stroke="#000000" stroke-width="16" stroke-opacity="1" stroke-miterlimit="4"/><path stroke-linecap="round" transform="matrix(0.801203, 0, 0, 0.801203, 265.796913, 393.695391)" fill-opacity="1" fill="#6b1fad" fill-rule="nonzero" stroke-linejoin="round" d="M -168.667288 -39.033192 C -137.912758 -146.040233 -60.343867 -238.352577 48.725502 -283.148489 C 48.725502 -283.148489 -63.259404 -334.921214 -63.259404 -334.921214 C -81.566833 -343.385048 -89.552869 -365.080935 -81.08416 -383.398115 C -72.625202 -401.695792 -50.914688 -409.681829 -32.60726 -401.217995 C -32.60726 -401.217995 160.744537 -311.83094 160.744537 -311.83094 C 169.895813 -307.599023 176.472836 -300.046904 179.705279 -291.285666 C 182.918221 -282.504926 182.806085 -272.515067 178.574168 -263.358915 C 178.574168 -263.358915 89.182237 -69.987617 89.182237 -69.987617 C 80.723279 -51.689939 59.022516 -43.703903 40.705337 -52.172612 C 22.407659 -60.63157 14.421623 -82.337208 22.880581 -100.634886 C 22.880581 -100.634886 67.998275 -198.227374 67.998275 -198.227374 C -65.419242 -135.816351 -131.545381 17.94167 -81.474199 159.481738 C -55.707285 232.326288 -3.837051 288.257798 59.812344 320.640738 C 68.739348 325.189561 75.803919 332.259007 80.352742 340.688713 C 84.89669 349.103792 86.949267 358.898631 85.85716 368.854362 C 82.839237 396.420328 53.459593 412.592296 28.472757 400.569361 C -56.097324 359.854226 -125.553416 287.497223 -160.510609 192.44486 C -172.153256 160.793242 -179.178823 128.507811 -181.948096 96.334517 " stroke="#000000" stroke-width="16" stroke-opacity="1" stroke-miterlimit="4"/><path stroke-linecap="round" transform="matrix(0.801203, 0, 0, 0.801203, 579.254734, 492.392395)" fill-opacity="1" fill="#000000" fill-rule="nonzero" stroke-linejoin="round" d="M 162.142814 -177.357555 C 230.126511 7.871691 141.607291 213.222045 -35.431149 292.9654 C -35.431149 292.9654 60.172144 337.166504 60.172144 337.166504 C 78.469821 345.625462 86.460733 367.326225 77.9969 385.633653 C 69.533066 403.941082 47.822552 411.922243 29.524875 403.463285 C 29.524875 403.463285 -163.846423 314.066478 -163.846423 314.066478 C -172.9977 309.834562 -179.564972 302.292194 -182.797415 293.52608 C -186.010357 284.759966 -185.893345 274.74573 -181.661428 265.594454 C -181.661428 265.594454 -92.274373 72.232906 -92.274373 72.232906 C -83.815415 53.930353 -62.104901 45.949192 -43.807224 54.40815 C -25.490044 62.87686 -17.513759 84.582498 -25.972717 102.880175 C -25.972717 102.880175 -79.583498 218.843473 -79.583498 218.843473 C 62.619635 160.48885 135.074147 -1.089442 82.243443 -146.798045 C 51.971586 -230.290644 -12.716286 -291.263401 -89.943894 -319.604567 C -111.132731 -327.385834 -125.037601 -347.731213 -124.32578 -370.280309 C -123.540828 -395.194013 -99.153676 -412.643357 -75.405211 -405.042484 C 30.782749 -371.031133 120.745111 -290.161542 162.142814 -177.357555 Z M 162.142814 -177.357555 " stroke="#000000" stroke-width="16" stroke-opacity="1" stroke-miterlimit="4"/><path stroke-linecap="round" transform="matrix(0.801203, 0, 0, 0.801203, 570.455903, 483.09686)" fill-opacity="1" fill="#ffde59" fill-rule="nonzero" stroke-linejoin="round" d="M 97.930305 -18.764729 C 102.362117 -60.835249 97.584146 -104.485423 82.245885 -146.799717 C 51.974028 -230.292316 -12.713844 -291.260197 -89.946327 -319.606239 C -111.130289 -327.387506 -125.035158 -347.728009 -124.323338 -370.281981 C -123.543262 -395.195685 -99.151234 -412.645029 -75.407645 -405.044155 C 30.785191 -371.032805 120.747553 -290.163214 162.14038 -177.359227 C 230.124077 7.874895 141.609733 213.220373 -35.433582 292.968603 C -35.433582 292.968603 60.174586 337.164832 60.174586 337.164832 C 78.472263 345.62379 86.4583 367.324553 77.994466 385.631981 C 69.530633 403.93941 47.824994 411.920571 29.527317 403.461613 C 29.527317 403.461613 -163.843981 314.069682 -163.843981 314.069682 C -173.000133 309.837765 -179.567405 302.290522 -182.794973 293.529284 C -186.01279 284.758295 -185.895779 274.748934 -181.663862 265.592782 C -181.663862 265.592782 -92.271931 72.231234 -92.271931 72.231234 C -83.812973 53.933557 -62.102459 45.952396 -43.804782 54.411354 C -25.487602 62.880063 -17.516192 84.580826 -25.97515 102.878503 C -25.97515 102.878503 -79.585931 218.841801 -79.585931 218.841801 C -22.533061 195.429745 23.291578 155.402052 54.304508 106.45223 " stroke="#000000" stroke-width="16" stroke-opacity="1" stroke-miterlimit="4"/><g fill="#000000" fill-opacity="1"><g transform="translate(271.845931, 489.485297)"><g><path d="M 130.09375 -113.46875 C 131.5625 -113.46875 133.144531 -113.128906 134.84375 -112.453125 C 133.59375 -97.640625 131.609375 -84.519531 128.890625 -73.09375 C 126.179688 -61.675781 123.21875 -51.785156 120 -43.421875 C 116.78125 -35.054688 113.695312 -27.988281 110.75 -22.21875 C 107.582031 -16.226562 104.726562 -11.5625 102.1875 -8.21875 C 99.644531 -4.882812 97.351562 -2.453125 95.3125 -0.921875 C 93.28125 0.597656 91.414062 1.554688 89.71875 1.953125 C 88.019531 2.347656 86.328125 2.546875 84.640625 2.546875 C 81.359375 -5.140625 78.132812 -13.816406 74.96875 -23.484375 C 71.800781 -33.160156 69.144531 -42.859375 67 -52.578125 C 65.1875 -48.054688 63.09375 -43.25 60.71875 -38.15625 C 58.34375 -33.070312 55.628906 -27.757812 52.578125 -22.21875 C 49.410156 -16.34375 46.554688 -11.734375 44.015625 -8.390625 C 41.472656 -5.054688 39.179688 -2.625 37.140625 -1.09375 C 35.109375 0.425781 33.242188 1.410156 31.546875 1.859375 C 29.847656 2.316406 28.148438 2.546875 26.453125 2.546875 C 23.742188 -3.335938 21.171875 -9.984375 18.734375 -17.390625 C 16.304688 -24.796875 14.128906 -32.484375 12.203125 -40.453125 C 10.285156 -48.421875 8.757812 -56.273438 7.625 -64.015625 C 6.5 -71.765625 5.9375 -78.921875 5.9375 -85.484375 C 5.9375 -93.515625 6.984375 -100.128906 9.078125 -105.328125 C 11.171875 -110.523438 14.757812 -113.125 19.84375 -113.125 C 21.195312 -113.125 22.5 -112.898438 23.75 -112.453125 C 22.050781 -108.046875 20.832031 -103.378906 20.09375 -98.453125 C 19.363281 -93.535156 19 -88.421875 19 -83.109375 C 19 -74.628906 19.816406 -65.976562 21.453125 -57.15625 C 23.097656 -48.332031 25.21875 -39.847656 27.8125 -31.703125 C 30.414062 -23.566406 33.1875 -16.164062 36.125 -9.5 C 43.8125 -19.332031 49.75 -29.988281 53.9375 -41.46875 C 58.125 -52.945312 61.117188 -64.453125 62.921875 -75.984375 C 62.691406 -78.585938 62.492188 -81.019531 62.328125 -83.28125 C 62.160156 -85.539062 62.078125 -87.742188 62.078125 -89.890625 C 62.078125 -96.898438 62.976562 -102.523438 64.78125 -106.765625 C 66.59375 -111.003906 69.59375 -113.125 73.78125 -113.125 C 74.90625 -113.125 76.148438 -112.898438 77.515625 -112.453125 C 77.734375 -111.097656 77.898438 -109.65625 78.015625 -108.125 C 78.128906 -106.601562 78.1875 -104.878906 78.1875 -102.953125 C 78.1875 -100.128906 78.015625 -97.019531 77.671875 -93.625 C 77.335938 -90.226562 76.773438 -86.550781 75.984375 -82.59375 C 76.660156 -69.9375 78.78125 -57.5 82.34375 -45.28125 C 85.90625 -33.070312 90.175781 -21.085938 95.15625 -9.328125 C 100.238281 -17.359375 104.363281 -26.007812 107.53125 -35.28125 C 110.695312 -44.550781 113.097656 -53.847656 114.734375 -63.171875 C 116.378906 -72.503906 117.316406 -81.1875 117.546875 -89.21875 C 117.765625 -97.46875 119.003906 -103.570312 121.265625 -107.53125 C 123.523438 -111.488281 126.46875 -113.46875 130.09375 -113.46875 Z M 130.09375 -113.46875 "/></g></g></g><g fill="#000000" fill-opacity="1"><g transform="translate(409.226424, 489.485297)"><g><path d="M 38.5 -105.5 C 37.257812 -98.257812 35.929688 -88.84375 34.515625 -77.25 C 33.097656 -65.664062 32.390625 -51.789062 32.390625 -35.625 C 32.390625 -30.644531 32.503906 -25.351562 32.734375 -19.75 C 32.960938 -14.15625 33.359375 -9.664062 33.921875 -6.28125 L 37.3125 -6.28125 C 39.457031 -6.28125 41.578125 -6.304688 43.671875 -6.359375 C 45.765625 -6.410156 47.828125 -6.492188 49.859375 -6.609375 C 49.640625 -5.484375 49.242188 -4.328125 48.671875 -3.140625 C 48.109375 -1.953125 47.035156 -0.960938 45.453125 -0.171875 C 43.867188 0.617188 41.4375 1.015625 38.15625 1.015625 C 32.613281 1.015625 27.863281 0.957031 23.90625 0.84375 C 19.957031 0.726562 16.3125 0.644531 12.96875 0.59375 C 9.632812 0.539062 6.101562 0.515625 2.375 0.515625 C 1.925781 -1.296875 2.488281 -2.679688 4.0625 -3.640625 C 5.644531 -4.609375 7.765625 -5.316406 10.421875 -5.765625 C 13.085938 -6.210938 15.71875 -6.4375 18.3125 -6.4375 C 18.195312 -8.132812 18.113281 -9.800781 18.0625 -11.4375 C 18.007812 -13.082031 17.984375 -14.695312 17.984375 -16.28125 C 17.984375 -23.0625 18.378906 -29.898438 19.171875 -36.796875 C 19.960938 -43.703125 20.753906 -50.96875 21.546875 -58.59375 C 22.335938 -66.226562 22.734375 -74.625 22.734375 -83.78125 C 22.734375 -87.519531 22.785156 -91.082031 22.890625 -94.46875 C 23.003906 -97.863281 23.117188 -101.65625 23.234375 -105.84375 C 20.066406 -105.726562 17.066406 -105.472656 14.234375 -105.078125 C 11.410156 -104.679688 8.757812 -104.195312 6.28125 -103.625 C 5.9375 -104.644531 5.765625 -105.550781 5.765625 -106.34375 C 5.765625 -108.945312 7.429688 -110.585938 10.765625 -111.265625 C 14.109375 -111.941406 20.070312 -112.28125 28.65625 -112.28125 L 55.46875 -112.28125 C 55.125 -110.132812 54.242188 -108.4375 52.828125 -107.1875 C 51.421875 -105.945312 48.398438 -105.328125 43.765625 -105.328125 C 42.972656 -105.328125 42.148438 -105.328125 41.296875 -105.328125 C 40.453125 -105.328125 39.519531 -105.382812 38.5 -105.5 Z M 38.5 -105.5 "/></g></g></g><g fill="#000000" fill-opacity="1"><g transform="translate(466.553093, 489.485297)"><g><path d="M 87.859375 -113.125 C 90.117188 -113.125 91.671875 -112.050781 92.515625 -109.90625 C 93.367188 -107.757812 93.796875 -104.082031 93.796875 -98.875 C 93.796875 -94.582031 93.625 -89.722656 93.28125 -84.296875 C 92.945312 -78.867188 92.609375 -72.535156 92.265625 -65.296875 C 91.929688 -58.054688 91.765625 -49.578125 91.765625 -39.859375 C 91.765625 -27.191406 91.054688 -17.097656 89.640625 -9.578125 C 88.222656 -2.054688 85.367188 1.703125 81.078125 1.703125 C 79.828125 1.703125 78.523438 1.53125 77.171875 1.1875 C 74.347656 -7.632812 71.238281 -16.765625 67.84375 -26.203125 C 64.445312 -35.640625 60.882812 -44.769531 57.15625 -53.59375 C 53.425781 -62.414062 49.664062 -70.359375 45.875 -77.421875 C 42.09375 -84.492188 38.390625 -90.09375 34.765625 -94.21875 C 31.148438 -98.34375 27.816406 -100.40625 24.765625 -100.40625 L 24.59375 -100.40625 C 24.707031 -98.9375 24.789062 -97.378906 24.84375 -95.734375 C 24.90625 -94.097656 24.9375 -92.378906 24.9375 -90.578125 C 24.9375 -87.179688 24.878906 -83.53125 24.765625 -79.625 C 24.648438 -75.726562 24.476562 -71.6875 24.25 -67.5 C 23.800781 -56.3125 23.4375 -45.828125 23.15625 -36.046875 C 22.875 -26.265625 22.644531 -18.066406 22.46875 -11.453125 C 22.300781 -4.835938 22.046875 -0.625 21.703125 1.1875 C 18.316406 1.414062 15.773438 0.96875 14.078125 -0.15625 C 12.378906 -1.289062 11.25 -3.835938 10.6875 -7.796875 C 10.125 -11.753906 9.84375 -17.75 9.84375 -25.78125 C 9.84375 -27.695312 9.867188 -30.578125 9.921875 -34.421875 C 9.972656 -38.273438 10.140625 -42.742188 10.421875 -47.828125 C 10.710938 -52.921875 11.140625 -58.265625 11.703125 -63.859375 C 12.265625 -69.453125 13.054688 -74.90625 14.078125 -80.21875 L 12.375 -112.453125 C 14.070312 -113.128906 15.488281 -113.46875 16.625 -113.46875 C 19.789062 -113.46875 21.992188 -111.375 23.234375 -107.1875 C 25.722656 -110.582031 28.550781 -112.28125 31.71875 -112.28125 C 34.882812 -112.28125 38.132812 -110.722656 41.46875 -107.609375 C 44.800781 -104.503906 48.164062 -100.296875 51.5625 -94.984375 C 54.957031 -89.671875 58.207031 -83.734375 61.3125 -77.171875 C 64.425781 -70.609375 67.28125 -63.820312 69.875 -56.8125 C 72.476562 -49.800781 74.710938 -42.988281 76.578125 -36.375 C 78.441406 -29.757812 79.769531 -23.851562 80.5625 -18.65625 C 81.46875 -25.664062 82.085938 -31.851562 82.421875 -37.21875 C 82.765625 -42.59375 82.992188 -47.65625 83.109375 -52.40625 C 83.222656 -57.15625 83.28125 -61.960938 83.28125 -66.828125 C 83.28125 -72.703125 83.222656 -78.578125 83.109375 -84.453125 C 82.992188 -90.335938 82.820312 -95.738281 82.59375 -100.65625 C 82.375 -105.582031 81.976562 -109.398438 81.40625 -112.109375 C 82.65625 -112.453125 83.875 -112.707031 85.0625 -112.875 C 86.25 -113.039062 87.179688 -113.125 87.859375 -113.125 Z M 87.859375 -113.125 "/></g></g></g></svg>